<svg xmlns="http://www.w3.org/2000/svg" width="464" height="304" class="svgbob"><style>.svgbob line, .svgbob path, .svgbob circle, .svgbob rect, .svgbob polygon {
    stroke: black;
    stroke-width: 2;
    stroke-opacity: 1;
    fill-opacity: 1;
    stroke-linecap: round;
    stroke-linejoin: miter;
}
.svgbob text {
    white-space: pre;
    fill: black;
    font-family: Iosevka Fixed, monospace;
    font-size: 14px;
}
.svgbob rect.backdrop {
    stroke: none;
    fill: white;
}
.svgbob .broken {
    stroke-dasharray: 8;
}
.svgbob .filled {
    fill: black;
}
.svgbob .bg_filled {
    fill: white;
    stroke-width: 1;
}
.svgbob .nofill {
    fill: white;
}
.svgbob .end_marked_arrow {
    marker-end: url(#arrow);
}
.svgbob .start_marked_arrow {
    marker-start: url(#arrow);
}
.svgbob .end_marked_diamond {
    marker-end: url(#diamond);
}
.svgbob .start_marked_diamond {
    marker-start: url(#diamond);
}
.svgbob .end_marked_circle {
    marker-end: url(#circle);
}
.svgbob .start_marked_circle {
    marker-start: url(#circle);
}
.svgbob .end_marked_open_circle {
    marker-end: url(#open_circle);
}
.svgbob .start_marked_open_circle {
    marker-start: url(#open_circle);
}
.svgbob .end_marked_big_open_circle {
    marker-end: url(#big_open_circle);
}
.svgbob .start_marked_big_open_circle {
    marker-start: url(#big_open_circle);
}<!--separator--></style><defs><marker id="arrow" viewBox="-2 -2 8 8" refX="4" refY="2" markerWidth="7" markerHeight="7" orient="auto-start-reverse"><polygon points="0,0 0,4 4,2 0,0"></polygon></marker><marker id="diamond" viewBox="-2 -2 8 8" refX="4" refY="2" markerWidth="7" markerHeight="7" orient="auto-start-reverse"><polygon points="0,2 2,0 4,2 2,4 0,2"></polygon></marker><marker id="circle" viewBox="0 0 8 8" refX="4" refY="4" markerWidth="7" markerHeight="7" orient="auto-start-reverse"><circle cx="4" cy="4" r="2" class="filled"></circle></marker><marker id="open_circle" viewBox="0 0 8 8" refX="4" refY="4" markerWidth="7" markerHeight="7" orient="auto-start-reverse"><circle cx="4" cy="4" r="2" class="bg_filled"></circle></marker><marker id="big_open_circle" viewBox="0 0 8 8" refX="4" refY="4" markerWidth="7" markerHeight="7" orient="auto-start-reverse"><circle cx="4" cy="4" r="3" class="bg_filled"></circle></marker></defs><rect class="backdrop" x="0" y="0" width="464" height="304"></rect><rect x="116" y="168" width="64" height="48" class="solid nofill" rx="0"></rect><text x="122" y="204" >message</text><polygon points="144,20 136,24 144,28" class="filled"></polygon><line x1="0" y1="88" x2="8" y2="88" class="solid"></line><polygon points="8,84 16,84 12,96" class="filled"></polygon><polygon points="272,92 276,80 280,92" class="filled"></polygon><text x="26" y="156" >write</text><text x="98" y="156" >kmalloc</text><text x="226" y="156" >read</text><polygon points="64,164 72,168 64,172" class="filled"></polygon><line x1="216" y1="168" x2="232" y2="168" class="solid"></line><polygon points="232,164 240,168 232,172" class="filled"></polygon><line x1="148" y1="208" x2="148" y2="260" class="solid"></line><text x="186" y="252" >ebbchar.c</text><polygon points="144,260 152,260 148,272" class="filled"></polygon><text x="154" y="284" >demesg</text><text x="154" y="60" >test.c</text><text x="346" y="76" >users</text><text x="394" y="76" >space</text><line x1="336" y1="88" x2="344" y2="88" class="solid"></line><line x1="352" y1="88" x2="360" y2="88" class="solid"></line><line x1="368" y1="88" x2="376" y2="88" class="solid"></line><line x1="384" y1="88" x2="392" y2="88" class="solid"></line><line x1="400" y1="88" x2="408" y2="88" class="solid"></line><line x1="416" y1="88" x2="424" y2="88" class="solid"></line><line x1="432" y1="88" x2="440" y2="88" class="solid"></line><text x="346" y="108" >kernel</text><text x="402" y="108" >space</text><line x1="24" y1="88" x2="32" y2="88" class="solid"></line><line x1="40" y1="88" x2="48" y2="88" class="solid"></line><line x1="56" y1="88" x2="64" y2="88" class="solid"></line><line x1="72" y1="88" x2="80" y2="88" class="solid"></line><line x1="88" y1="88" x2="96" y2="88" class="solid"></line><line x1="104" y1="88" x2="112" y2="88" class="solid"></line><line x1="120" y1="88" x2="128" y2="88" class="solid"></line><line x1="136" y1="88" x2="144" y2="88" class="solid"></line><line x1="152" y1="88" x2="160" y2="88" class="solid"></line><line x1="168" y1="88" x2="176" y2="88" class="solid"></line><line x1="184" y1="88" x2="192" y2="88" class="solid"></line><line x1="200" y1="88" x2="208" y2="88" class="solid"></line><line x1="216" y1="88" x2="224" y2="88" class="solid"></line><line x1="232" y1="88" x2="240" y2="88" class="solid"></line><line x1="248" y1="88" x2="256" y2="88" class="solid"></line><line x1="288" y1="88" x2="296" y2="88" class="solid"></line><line x1="304" y1="88" x2="312" y2="88" class="solid"></line><line x1="320" y1="88" x2="328" y2="88" class="solid"></line><line x1="448" y1="88" x2="456" y2="88" class="solid"></line><g><line x1="68" y1="8" x2="132" y2="8" class="solid"></line><line x1="68" y1="8" x2="68" y2="56" class="solid"></line><line x1="132" y1="8" x2="132" y2="56" class="solid"></line><line x1="12" y1="24" x2="68" y2="24" class="solid"></line><line x1="12" y1="24" x2="12" y2="84" class="solid"></line><line x1="68" y1="56" x2="132" y2="56" class="solid"></line></g><g><line x1="144" y1="24" x2="276" y2="24" class="solid"></line><line x1="276" y1="24" x2="276" y2="80" class="solid"></line></g><g><line x1="276" y1="92" x2="276" y2="168" class="solid"></line><line x1="240" y1="168" x2="276" y2="168" class="solid"></line></g><g><line x1="12" y1="96" x2="12" y2="168" class="solid"></line><line x1="12" y1="168" x2="64" y2="168" class="solid"></line></g><g><line x1="68" y1="136" x2="220" y2="136" class="solid"></line><line x1="68" y1="136" x2="68" y2="160" class="solid"></line><line x1="220" y1="136" x2="220" y2="160" class="solid"></line></g><g><line x1="68" y1="176" x2="68" y2="232" class="solid"></line><line x1="220" y1="176" x2="220" y2="232" class="solid"></line><line x1="68" y1="232" x2="220" y2="232" class="solid"></line></g></svg>